<svg xmlns="http://www.w3.org/2000/svg" viewBox="0 0 60 60"><defs><style>.cls-1,.cls-3{fill:#1d1d1b;}.cls-2{fill:#fff;}.cls-3{stroke:#fff;stroke-linecap:round;stroke-linejoin:round;stroke-width:1.98px;}</style></defs><g id="Слой_2" data-name="Слой 2"><rect class="cls-1" width="60" height="60"/></g><g id="Слой_6" data-name="Слой 6"><path class="cls-2" d="M43.05,51.45H28.84a2.27,2.27,0,1,1,0-4.54H43.05a2.27,2.27,0,1,1,0,4.54Z"/><path class="cls-2" d="M43.05,42.38H28.84a2.27,2.27,0,1,1,0-4.54H43.05a2.27,2.27,0,1,1,0,4.54Z"/><path class="cls-2" d="M50.09,33.31H28.84a2.27,2.27,0,1,1,0-4.54H50.09a2.27,2.27,0,0,1,0,4.54Z"/><path class="cls-2" d="M41.49,24.24H28.84a2.27,2.27,0,1,1,0-4.54H41.49a2.27,2.27,0,0,1,0,4.54Z"/><path class="cls-2" d="M35.43,15.17H28.84a2.27,2.27,0,1,1,0-4.54h6.59a2.27,2.27,0,0,1,0,4.54Z"/><polygon class="cls-3" points="30 50.45 30 9.55 22.23 16.97 22.23 5.69 16.89 5.69 16.89 22.06 10.21 28.44 15.83 28.44 15.83 50.45 30 50.45"/></g></svg>